<?xml version="1.0" encoding="UTF-8"?>
<svg version="1.1" xmlns="http://www.w3.org/2000/svg" width="241" height="241">
<path d="M0 0 C79.53 0 159.06 0 241 0 C241 79.53 241 159.06 241 241 C161.47 241 81.94 241 0 241 C0 161.47 0 81.94 0 0 Z " fill="#EDE8E2" transform="translate(0,0)"/>
<path d="M0 0 C79.53 0 159.06 0 241 0 C241 79.53 241 159.06 241 241 C161.47 241 81.94 241 0 241 C0 161.47 0 81.94 0 0 Z M97 43 C95.80632812 43.44730469 94.61265625 43.89460938 93.3828125 44.35546875 C66.5904488 55.10122322 48.05853465 75.29823621 36 101 C31.3609083 112.25891918 29.61867158 123.62144842 29.6875 135.75 C29.69313965 136.79986084 29.6987793 137.84972168 29.70458984 138.93139648 C30.10082071 164.43336435 40.98956098 187.28417813 58.375 205.6875 C78.12380994 224.63748168 105.29542133 230.76654939 131.81640625 230.25 C157.32482318 229.31373951 180.70829603 219.08593113 198.51171875 200.8671875 C205.66634393 192.6230825 210.90603026 183.08871114 215 173 C215.28359375 172.37480469 215.5671875 171.74960938 215.859375 171.10546875 C225.00266699 149.69337169 223.84580386 120.54170942 216 99 C213.75616804 93.4217518 211.01102383 88.19598823 208 83 C207.44441406 81.99582031 206.88882813 80.99164063 206.31640625 79.95703125 C195.04632853 60.79519648 174.86568832 48.66914111 154.20703125 41.82421875 C136.08406434 37.16655003 114.64626107 36.13284057 97 43 Z " fill="#F4F3E9" transform="translate(0,0)"/>
<path d="M0 0 C9.30261115 7.12896828 16.1472004 15.92241764 21.98364258 26.02270508 C22.62301758 27.09520508 23.26239258 28.16770508 23.92114258 29.27270508 C25.25130234 32.71547153 25.32896396 35.36229844 24.98364258 39.02270508 C24.32364258 40.01270508 23.66364258 41.00270508 22.98364258 42.02270508 C20.63989258 41.83520508 20.63989258 41.83520508 17.98364258 41.02270508 C16.42588365 38.53029079 15.4746279 36.0000396 14.38989258 33.27270508 C13.16085967 30.77718019 13.16085967 30.77718019 10.38989258 30.14770508 C9.59583008 30.10645508 8.80176758 30.06520508 7.98364258 30.02270508 C7.65364258 30.35270508 7.32364258 30.68270508 6.98364258 31.02270508 C7.02700885 36.27002382 7.60308334 40.87879375 10.98364258 45.02270508 C12.99539175 46.83245485 15.03723105 48.57801943 17.14379883 50.27661133 C20.21388072 53.19025593 21.30035661 56.01753864 21.48364258 60.21020508 C21.33432767 67.19354858 16.8757922 71.95035073 12.35864258 76.89770508 C10.03726586 79.95214812 9.39601626 81.73930879 8.35864258 85.33520508 C5.90943895 92.52731097 1.01022915 95.74930733 -5.01635742 100.02270508 C-6.24936496 100.95817026 -7.47974388 101.8971081 -8.70776367 102.83911133 C-9.95510254 103.7771192 -11.20378229 104.7133469 -12.45385742 105.64770508 C-13.04473145 106.09831299 -13.63560547 106.5489209 -14.24438477 107.01318359 C-18.46808097 110.07424484 -18.46808097 110.07424484 -21.42651367 109.79614258 C-21.95116211 109.5409082 -22.47581055 109.28567383 -23.01635742 109.02270508 C-23.44260624 102.36256726 -22.06743954 97.81069936 -19.51635742 91.71020508 C-15.75344884 82.02789447 -14.27946764 75.08985936 -17.95385742 65.08520508 C-23.03395772 54.06397053 -29.603264 45.14062287 -41.12573242 40.87036133 C-42.24463867 40.46688477 -43.36354492 40.0634082 -44.51635742 39.64770508 C-50.2643739 37.50392271 -55.41159204 35.18181884 -59.01635742 30.02270508 C-59.32885742 26.39770508 -59.32885742 26.39770508 -58.01635742 23.02270508 C-56.36941257 21.33654725 -54.70509621 19.66700337 -53.01635742 18.02270508 C-53.31410064 13.5100344 -56.60853308 11.06777635 -59.61791992 8.02270508 C-61.01635742 6.02270508 -61.01635742 6.02270508 -60.91088867 3.91333008 C-59.45229786 0.83054425 -56.90177351 -0.32848573 -54.01635742 -1.97729492 C-53.35635742 -1.97729492 -52.69635742 -1.97729492 -52.01635742 -1.97729492 C-52.01635742 -2.96729492 -52.01635742 -3.95729492 -52.01635742 -4.97729492 C-54.24811919 -4.77495657 -56.47687236 -4.53927218 -58.70385742 -4.28979492 C-59.94522461 -4.16217773 -61.1865918 -4.03456055 -62.46557617 -3.90307617 C-67.43566326 -2.60724488 -69.67942973 -0.03839179 -72.42260742 4.19067383 C-72.78354492 4.85711914 -73.14448242 5.52356445 -73.51635742 6.21020508 C-75.06217938 8.7593711 -75.83049072 9.90531558 -78.39135742 11.52270508 C-84.99538266 12.78061465 -88.71173724 12.07758212 -94.21948242 8.40942383 C-95.97065745 7.05797354 -97.49419435 5.62473473 -99.01635742 4.02270508 C-97.53705322 -0.26250515 -94.487291 -1.8467209 -90.70385742 -3.91479492 C-90.07938721 -4.26179443 -89.45491699 -4.60879395 -88.81152344 -4.96630859 C-59.57852563 -20.823431 -27.11016699 -19.79585518 0 0 Z " fill="#020202" transform="translate(176.016357421875,67.977294921875)"/>
<path d="M0 0 C4.41894848 3.46140181 8.82251392 6.98915962 12.66796875 11.08984375 C12.66796875 11.74984375 12.66796875 12.40984375 12.66796875 13.08984375 C9.3263064 12.4614338 5.99734575 11.78018701 2.66796875 11.08984375 C1.70632812 10.90679687 0.7446875 10.72375 -0.24609375 10.53515625 C-5.7806026 9.35231927 -10.15055537 7.79134935 -14.95703125 4.77734375 C-20.03248742 1.61525399 -25.05791069 -0.43012729 -30.70703125 -2.28515625 C-31.46838379 -2.53563721 -32.22973633 -2.78611816 -33.01416016 -3.04418945 C-53.66451271 -9.58415019 -74.18992319 -5.54495583 -93.08251953 4.14648438 C-97.00250528 6.24076628 -100.67572074 8.57578032 -104.33203125 11.08984375 C-102.84105467 14.88505685 -100.57502276 16.70027106 -97.33203125 19.08984375 C-97.66203125 20.07984375 -97.99203125 21.06984375 -98.33203125 22.08984375 C-100.64240242 23.0736147 -102.89816733 23.91046291 -105.26953125 24.71484375 C-121.10521359 30.58624776 -128.64912749 43.53960695 -135.5625 58.1328125 C-143.14580763 74.77034494 -141.62086048 93.46369368 -137.3046875 110.828125 C-136.22222207 115.2246789 -135.75454208 119.58454401 -135.33203125 124.08984375 C-135.99203125 124.08984375 -136.65203125 124.08984375 -137.33203125 124.08984375 C-150.03749771 98.21304373 -153.36195488 71.903586 -144.08203125 44.3828125 C-133.89386175 18.59400844 -114.05375447 0.06433794 -89.10205078 -11.15283203 C-60.39322776 -23.43624845 -25.04276426 -17.83722983 0 0 Z " fill="#F3F3E8" transform="translate(182.33203125,58.91015625)"/>
<path d="M0 0 C5.17205656 2.41362639 6.89189159 7.40662744 9.40234375 12.2734375 C10.89666245 14.82364398 12.26870368 16.4676313 14.4375 18.4375 C22.89926691 26.39933758 26.72524702 37.70936639 30.71630859 48.34594727 C32.71694108 53.52145694 34.39558504 57.59457754 39 61 C41.44497201 61.65936704 41.44497201 61.65936704 43.9375 61.5625 C49.89686186 61.86446468 52.77984033 63.77984033 57 68 C57.4375 70.375 57.4375 70.375 57 73 C54.9375 75.0625 54.9375 75.0625 52 77 C51.44570312 77.38671875 50.89140625 77.7734375 50.3203125 78.171875 C47.51130158 79.99461097 45.62011249 81.04736361 42.23828125 80.7890625 C38.52889199 79.88520649 35.10755377 78.59841321 31.625 77.0625 C30.93599609 76.75892578 30.24699219 76.45535156 29.53710938 76.14257812 C8.18261519 66.40430924 -6.96552167 52.90033531 -15.75 30.75 C-17.79147484 24.62557549 -18.25345008 18.71597092 -18.375 12.3125 C-18.41238281 11.55388672 -18.44976562 10.79527344 -18.48828125 10.01367188 C-18.5234375 7.80078125 -18.5234375 7.80078125 -18 4 C-15.6015625 2.04296875 -15.6015625 2.04296875 -13 1 C-9.04283987 -0.97858007 -4.31384788 -0.41382843 0 0 Z " fill="#020202" transform="translate(66,132)"/>
<path d="M0 0 C0.61665527 0.19335938 1.23331055 0.38671875 1.86865234 0.5859375 C25.95741685 8.25834812 45.44465029 23.7477295 57.27148438 46.2565918 C60.30557254 52.30424698 62.29062939 58.45992334 64 65 C64.26659424 65.97783447 64.53318848 66.95566895 64.80786133 67.96313477 C66.89736305 76.17024419 67.47280037 83.862323 67.375 92.3125 C67.36484863 93.58561035 67.35469727 94.8587207 67.34423828 96.17041016 C66.88873119 123.8362865 56.65409877 147.1823644 36.765625 166.61328125 C14.90349668 185.48017448 -14.06521441 189.70277533 -41.8984375 187.72265625 C-65.78866757 184.85254852 -88.59231951 173.58092683 -103.83203125 154.734375 C-120.55428901 131.93472785 -127.32281505 105.18680054 -123.41796875 77.109375 C-118.90336064 51.39901705 -102.66134011 28.41418636 -81.54614258 13.57080078 C-58.0209625 -2.27821078 -27.54803178 -9.05688716 0 0 Z M-97 31 C-114.72113416 51.88265105 -123.08145019 75.73243843 -121 103 C-118.71571849 126.13288257 -107.47422169 150.31033554 -89.41015625 165.25 C-67.21103572 181.36864829 -40.14247919 188.5113808 -12.828125 184.46875 C-9.17365533 183.77121637 -5.59808528 182.94449739 -2 182 C-0.9275 181.73316406 0.145 181.46632812 1.25 181.19140625 C15.17398714 177.35207156 27.38224311 170.79550636 38 161 C38.96292969 160.15695313 38.96292969 160.15695313 39.9453125 159.296875 C49.44777955 150.51881127 54.9256138 139.07183242 59 127 C59.36617432 125.95875977 59.36617432 125.95875977 59.73974609 124.89648438 C66.20664292 106.02013687 66.02510761 85.23028195 61 66 C60.73316406 64.90171875 60.46632812 63.8034375 60.19140625 62.671875 C54.32220208 41.07320364 40.08511981 23.46567505 20.88037109 12.17675781 C-18.98928773 -10.31279743 -65.8679105 -1.65509819 -97 31 Z " fill="#151514" transform="translate(154,42)"/>
<path d="M0 0 C1.8828125 1.6484375 1.8828125 1.6484375 3 3 C-1.07506208 4.70224112 -4.40411932 3.11682851 -8.3125 1.6875 C-22.97509447 -3.50581045 -36.99040381 -5.37389033 -52.50317383 -5.37060547 C-54.80039842 -5.37497697 -57.09569062 -5.41145632 -59.39257812 -5.44921875 C-87.56433134 -5.66416981 -112.97058367 6.53084706 -133 26 C-159.90113958 53.6692448 -168.60514513 88.40313113 -168.2109375 125.94140625 C-167.93156391 143.68582386 -164.5766336 161.597837 -157.3125 177.88671875 C-156 181 -156 181 -156 184 C-156.99 184 -157.98 184 -159 184 C-168.28277248 160.0108127 -174.35280638 135.9184118 -173 110 C-172.96277832 109.24541504 -172.92555664 108.49083008 -172.88720703 107.71337891 C-171.42473484 82.27279121 -162.50103017 55.68947624 -146 36 C-145.27039063 35.07316406 -144.54078125 34.14632812 -143.7890625 33.19140625 C-125.48311032 10.16839131 -100.16766116 -5.62855266 -70.73364258 -9.28125 C-47.16734688 -11.83470868 -21.8799794 -9.83013567 0 0 Z " fill="#1C1C1B" transform="translate(178,23)"/>
<path d="M0 0 C2.3125 0.0625 2.3125 0.0625 5 1 C6.08301035 3.29598193 7.07796291 5.63477442 8 8 C9.91621575 10.420113 9.91621575 10.420113 12 12 C12.66 12 13.32 12 14 12 C14.99 10.02 15.98 8.04 17 6 C19.475 6.495 19.475 6.495 22 7 C21.96777344 7.92941406 21.93554688 8.85882813 21.90234375 9.81640625 C21.79155106 17.186572 21.79155106 17.186572 25.0703125 23.48828125 C27.31359804 25.18656795 29.52306254 26.66895886 32 28 C31.125 32.875 31.125 32.875 30 34 C25.35419476 34.59308152 22.92956101 34.10451148 18.9375 31.6875 C12.64470186 28.22402196 5.87682399 27.79825511 -1.15649414 27.0769043 C-6.38618245 26.50942262 -10.40588295 25.79038653 -15 23 C-14.67 21.68 -14.34 20.36 -14 19 C-7.07 17.515 -7.07 17.515 0 16 C-0.99 14.68 -1.98 13.36 -3 12 C-3.77615763 8.10399308 -3.54636272 4.91060453 -1.5 1.5 C-1.005 1.005 -0.51 0.51 0 0 Z " fill="#161615" transform="translate(196,19)"/>
<path d="M0 0 C1.8828125 1.6484375 1.8828125 1.6484375 3 3 C-1.07506208 4.70224112 -4.40411932 3.11682851 -8.3125 1.6875 C-23.10952155 -3.55342287 -37.12976681 -5.34576825 -52.77783203 -5.26074219 C-55.12949193 -5.24997944 -57.48039366 -5.26072859 -59.83203125 -5.2734375 C-68.41379839 -5.28019639 -76.5692435 -4.81027249 -85 -3 C-85 -3.66 -85 -4.32 -85 -5 C-85.66 -5.33 -86.32 -5.66 -87 -6 C-84.8766603 -6.4864712 -82.75121387 -6.96374872 -80.625 -7.4375 C-78.84996094 -7.83775391 -78.84996094 -7.83775391 -77.0390625 -8.24609375 C-52.14511754 -13.26430259 -23.22449224 -10.43419217 0 0 Z " fill="#242422" transform="translate(178,23)"/>
<path d="M0 0 C0.66 0 1.32 0 2 0 C2.28875 1.155 2.5775 2.31 2.875 3.5 C4.73719892 8.42275733 7.87389114 10.69777123 12.015625 13.7734375 C15.49798832 16.37153579 18.81116614 19.12988314 22.125 21.9375 C22.70556152 22.42259033 23.28612305 22.90768066 23.88427734 23.4074707 C25.27607065 24.58180939 26.64094304 25.78792569 28 27 C28 27.33 28 27.66 28 28 C23.91164135 27.65930345 21.03488012 27.147044 17.49609375 25.0546875 C12.24613891 22.34267744 6.87484001 21.94490889 1.0625 21.375 C-1.00996844 21.16178831 -3.08166314 20.94086459 -5.15234375 20.7109375 C-6.05976318 20.62118652 -6.96718262 20.53143555 -7.90209961 20.43896484 C-8.59440674 20.29410645 -9.28671387 20.14924805 -10 20 C-10.33 19.34 -10.66 18.68 -11 18 C-9.27192682 17.66104344 -7.54248026 17.32908475 -5.8125 17 C-4.84957031 16.814375 -3.88664063 16.62875 -2.89453125 16.4375 C-0.2065794 16.03122388 2.28771019 15.92066428 5 16 C5 15.01 5 14.02 5 13 C4.38125 12.731875 3.7625 12.46375 3.125 12.1875 C1 11 1 11 -1 8 C-1.32727273 2.65454545 -1.32727273 2.65454545 0 0 Z " fill="#E6E6DB" transform="translate(197,22)"/>
<path d="M0 0 C2.9375 1.9375 2.9375 1.9375 5 5 C5.79509386 9.72915204 5.68388388 12.97417418 3 17 C1.0625 16.625 1.0625 16.625 -1 16 C-1.33 15.34 -1.66 14.68 -2 14 C-5.24983135 15.08784968 -5.24983135 15.08784968 -8 17 C-9.66617115 17.04063832 -11.33388095 17.042721 -13 17 C-14.24703266 13.25890201 -13.45460854 12.55570977 -12 9 C-11.87625 7.783125 -11.7525 6.56625 -11.625 5.3125 C-11 2 -11 2 -9.375 0.5625 C-6.02003395 -0.23209722 -3.44147131 -0.42263683 0 0 Z " fill="#0B0A0A" transform="translate(204,151)"/>
<path d="M0 0 C1 3 1 3 -0.1171875 5.34765625 C-7.44659571 16.66752004 -17.12231872 29.7168487 -30 35 C-28.07433173 30.27335971 -24.53030998 27.3037925 -20.73046875 24.06640625 C-15.22806976 19.32470758 -10.8967832 14.50318892 -6.76171875 8.53125 C-4.66828734 5.5233929 -2.39531621 2.76958437 0 0 Z " fill="#0A0A0A" transform="translate(209,181)"/>
<path d="M0 0 C-0.46819813 4.53120565 -1.91011813 6.35560184 -5.3125 9.3125 C-6.09238281 10.00988281 -6.87226563 10.70726562 -7.67578125 11.42578125 C-10 13 -10 13 -14 13 C-14.5625 10.375 -14.5625 10.375 -14 7 C-10.10396247 3.57620945 -5.27615382 0 0 0 Z " fill="#0C0C0C" transform="translate(185,173)"/>
<path d="M0 0 C0.34135064 5.72133357 -0.67282117 9.66554715 -2.875 14.8125 C-3.14441406 15.47958984 -3.41382813 16.14667969 -3.69140625 16.83398438 C-4.86552257 19.67190944 -5.80850327 21.80850327 -8 24 C-8.99 24.33 -9.98 24.66 -11 25 C-10.731875 24.20207031 -10.46375 23.40414062 -10.1875 22.58203125 C-9.29706192 19.89607165 -8.42405577 17.2069146 -7.5625 14.51171875 C-7.04180157 12.90360215 -6.52096563 11.29553006 -6 9.6875 C-5.60941406 8.45290039 -5.60941406 8.45290039 -5.2109375 7.19335938 C-4.95570313 6.41154297 -4.70046875 5.62972656 -4.4375 4.82421875 C-4.09525391 3.75820435 -4.09525391 3.75820435 -3.74609375 2.6706543 C-2.91487624 0.80939073 -2.1621402 0 0 0 Z " fill="#1B1A1A" transform="translate(218,158)"/>
<path d="M0 0 C0.99 0.33 1.98 0.66 3 1 C3.125 8.75 3.125 8.75 2 11 C-0.64 11 -3.28 11 -6 11 C-4.74194623 6.49197399 -3.09592835 3.5087188 0 0 Z " fill="#131312" transform="translate(231,230)"/>
<path d="M0 0 C1.40851418 4.22554254 -0.45158068 6.72057006 -2.3125 10.5 C-2.79493164 11.51513672 -2.79493164 11.51513672 -3.28710938 12.55078125 C-4.70846307 15.51023226 -6.17645221 18.26467831 -8 21 C-8.66 21 -9.32 21 -10 21 C-9.34005575 16.33518856 -7.55626452 12.46492376 -5.5625 8.25 C-5.24990234 7.56550781 -4.93730469 6.88101563 -4.61523438 6.17578125 C-2.2498283 1.12491415 -2.2498283 1.12491415 0 0 Z " fill="#090909" transform="translate(23,75)"/>
<path d="M0 0 C-0.33 0.99 -0.66 1.98 -1 3 C-3.8359375 3.94921875 -3.8359375 3.94921875 -7.375 4.6875 C-9.11910156 5.06455078 -9.11910156 5.06455078 -10.8984375 5.44921875 C-14 6 -14 6 -17 6 C-16.67 4.68 -16.34 3.36 -16 2 C-10.54538831 0.61470179 -5.63281599 -0.2396943 0 0 Z " fill="#21211F" transform="translate(119,39)"/>
<path d="M0 0 C2.25 0.9375 2.25 0.9375 4.25 4.9375 C-1.03 4.9375 -6.31 4.9375 -11.75 4.9375 C-4.20054945 -0.09546703 -4.20054945 -0.09546703 0 0 Z " fill="#F1F1E5" transform="translate(193.75,236.0625)"/>
<path d="M0 0 C1 3 1 3 -0.29296875 5.6640625 C-1.23076172 7.12972656 -1.23076172 7.12972656 -2.1875 8.625 C-2.79980469 9.60726562 -3.41210938 10.58953125 -4.04296875 11.6015625 C-6 14 -6 14 -8.23828125 14.8359375 C-8.81964844 14.89007813 -9.40101563 14.94421875 -10 15 C-8.65794923 11.19639883 -6.95995677 8.38858921 -4.4375 5.25 C-3.81746094 4.47140625 -3.19742188 3.6928125 -2.55859375 2.890625 C-1 1 -1 1 0 0 Z " fill="#111010" transform="translate(209,181)"/>
<path d="M0 0 C0 1.98 0 3.96 0 6 C-3.71599191 6.20086443 -4.77208445 6.1519437 -8 4 C-8 3.01 -8 2.02 -8 1 C-4.93251126 -0.86240388 -3.40254489 -1.2151946 0 0 Z " fill="#0A0A09" transform="translate(30,219)"/>
<path d="M0 0 C1 3 1 3 -0.21484375 5.48046875 C-0.78332031 6.37378906 -1.35179687 7.26710938 -1.9375 8.1875 C-2.50339844 9.08855469 -3.06929687 9.98960938 -3.65234375 10.91796875 C-4.09707031 11.60503906 -4.54179687 12.29210937 -5 13 C-5.99 12.67 -6.98 12.34 -8 12 C-6.71999898 6.99635967 -4.82671924 4.43423522 -1 1 C-0.67 0.67 -0.34 0.34 0 0 Z " fill="#1A1A19" transform="translate(30,64)"/>
<path d="M0 0 C0 0.66 0 1.32 0 2 C-1.6232687 2.6708712 -3.24867578 3.33657029 -4.875 4 C-6.23238281 4.556875 -6.23238281 4.556875 -7.6171875 5.125 C-10 6 -10 6 -12 6 C-11.875 4.125 -11.875 4.125 -11 2 C-7.26602153 0.30273706 -4.07842654 -0.23990744 0 0 Z " fill="#181817" transform="translate(93,18)"/>
<path d="M0 0 C2.59047483 1.72698322 3.62746184 3.6484275 5.0625 6.375 C1.0625 6.375 1.0625 6.375 -0.421875 5.0625 C-1.59375 3.5 -2.765625 1.9375 -3.9375 0.375 C-1.9375 -0.625 -1.9375 -0.625 0 0 Z " fill="#151514" transform="translate(196.9375,234.625)"/>
<path d="M0 0 C0.99 0.33 1.98 0.66 3 1 C2.34 2.65 1.68 4.3 1 6 C-0.65 6 -2.3 6 -4 6 C-3.6875 4.125 -3.6875 4.125 -3 2 C-2.01 1.34 -1.02 0.68 0 0 Z " fill="#343432" transform="translate(229,235)"/>
<path d="M0 0 C2.31 0 4.62 0 7 0 C6.67 0.99 6.34 1.98 6 3 C3.69 3.33 1.38 3.66 -1 4 C-0.67 2.68 -0.34 1.36 0 0 Z " fill="#2A2A28" transform="translate(112,39)"/>
<path d="M0 0 C1.0326802 2.78823655 1.04509293 3.8677274 0.0625 6.75 C-0.288125 7.4925 -0.63875 8.235 -1 9 C-1.99 9 -2.98 9 -4 9 C-3.47731534 6.23723823 -2.89130413 3.6739124 -2 1 C-1.34 0.67 -0.68 0.34 0 0 Z " fill="#10100F" transform="translate(17,87)"/>
</svg>
